<svg xmlns="http://www.w3.org/2000/svg" viewBox="0 0 64 64"><defs><linearGradient id="g" x1="0" x2="1" y1="1" y2="0"><stop offset="0" stop-color="#FEDA75"/><stop offset=".25" stop-color="#FA7E1E"/><stop offset=".5" stop-color="#D62976"/><stop offset=".75" stop-color="#962FBF"/><stop offset="1" stop-color="#4F5BD5"/></linearGradient></defs><rect x="6" y="6" width="52" height="52" rx="15" fill="url(#g)"/><path fill="#fff" d="M32 20.5c6.4 0 11.5 5.1 11.5 11.5S38.4 43.5 32 43.5 20.5 38.4 20.5 32 25.6 20.5 32 20.5zm0 4.2c-4 0-7.3 3.3-7.3 7.3s3.3 7.3 7.3 7.3 7.3-3.3 7.3-7.3-3.3-7.3-7.3-7.3z"/><circle cx="45" cy="19" r="3.2" fill="#fff"/><path fill="#fff" d="M21 12.5h22c4.7 0 8.5 3.8 8.5 8.5v22c0 4.7-3.8 8.5-8.5 8.5H21c-4.7 0-8.5-3.8-8.5-8.5V21c0-4.7 3.8-8.5 8.5-8.5zm0 4A4.5 4.5 0 0 0 16.5 21v22a4.5 4.5 0 0 0 4.5 4.5h22a4.5 4.5 0 0 0 4.5-4.5V21a4.5 4.5 0 0 0-4.5-4.5H21z"/></svg>