<svg xmlns="http://www.w3.org/2000/svg" viewBox="0 0 64 64"><circle cx="32" cy="32" r="30" fill="#25D366"/><path fill="#fff" d="M19.6 47.7 21.8 40c-1.4-2.4-2.1-5.1-2.1-7.9 0-8.7 7.1-15.8 15.8-15.8 4.2 0 8.2 1.6 11.2 4.6 3 3 4.6 7 4.6 11.2 0 8.7-7.1 15.8-15.8 15.8-2.7 0-5.3-.7-7.6-2l-8.3 1.8zm8.7-4.7.5.3c2 1.2 4.3 1.9 6.7 1.9 7.2 0 13.1-5.9 13.1-13.1 0-3.5-1.4-6.8-3.8-9.3-2.5-2.5-5.8-3.8-9.3-3.8-7.2 0-13.1 5.9-13.1 13.1 0 2.5.7 4.9 2.1 7l.3.5-1.3 4.5 4.8-1.1z"/><path fill="#fff" d="M42.7 35.7c-.4-.2-2.6-1.3-3-1.4-.4-.1-.7-.2-1 .2-.3.4-1.1 1.4-1.4 1.7-.3.3-.5.3-.9.1-.4-.2-1.8-.7-3.4-2.1-1.3-1.1-2.1-2.5-2.4-2.9-.3-.4 0-.7.2-.9.2-.2.4-.5.6-.7.2-.2.3-.4.4-.7.1-.3.1-.5 0-.7-.1-.2-1-2.4-1.4-3.3-.4-.9-.7-.8-1-.8h-.8c-.3 0-.7.1-1.1.5-.4.4-1.5 1.5-1.5 3.6s1.6 4.2 1.8 4.5c.2.3 3.1 4.8 7.6 6.7 1.1.5 1.9.8 2.5 1 .9.3 1.8.3 2.5.2.8-.1 2.6-1.1 2.9-2.1.4-1 .4-1.9.3-2.1-.2-.3-.5-.4-.9-.6z"/></svg>